<svg width="478" height="98" viewBox="0 0 478 98" fill="none" xmlns="http://www.w3.org/2000/svg">
<rect y="5" width="87.4766" height="83" rx="5" fill="#DD2D2D"/>
<path d="M10.7705 54V31.6H21.8105C24.3065 31.6 26.5039 32.0587 28.4025 32.976C30.3012 33.872 31.7839 35.152 32.8505 36.816C33.9172 38.48 34.4505 40.464 34.4505 42.768C34.4505 45.0933 33.9172 47.0987 32.8505 48.784C31.7839 50.448 30.3012 51.7387 28.4025 52.656C26.5039 53.552 24.3065 54 21.8105 54H10.7705ZM18.3225 48.112H21.4905C22.5572 48.112 23.4852 47.9093 24.2745 47.504C25.0852 47.0987 25.7145 46.5013 26.1625 45.712C26.6105 44.9013 26.8345 43.92 26.8345 42.768C26.8345 41.6373 26.6105 40.6773 26.1625 39.888C25.7145 39.0987 25.0852 38.5013 24.2745 38.096C23.4852 37.6907 22.5572 37.488 21.4905 37.488H18.3225V48.112ZM48.664 54.32C47.064 54.32 45.7734 54 44.792 53.36C43.8107 52.72 43.096 51.728 42.648 50.384C42.2214 49.04 42.008 47.3227 42.008 45.232C42.008 43.1627 42.2427 41.4667 42.712 40.144C43.1814 38.8 43.9067 37.808 44.888 37.168C45.8907 36.5067 47.1494 36.176 48.664 36.176C50.2 36.176 51.608 36.5387 52.888 37.264C54.168 37.9893 55.192 39.0347 55.96 40.4C56.728 41.744 57.112 43.3547 57.112 45.232C57.112 47.1093 56.728 48.7307 55.96 50.096C55.192 51.44 54.168 52.4853 52.888 53.232C51.608 53.9573 50.2 54.32 48.664 54.32ZM36.984 54V30.256H44.216V38.832L43.896 45.232L43.864 51.632V54H36.984ZM46.936 48.688C47.4694 48.688 47.9494 48.56 48.376 48.304C48.8027 48.048 49.144 47.664 49.4 47.152C49.656 46.6187 49.784 45.9787 49.784 45.232C49.784 44.464 49.656 43.8347 49.4 43.344C49.144 42.832 48.8027 42.448 48.376 42.192C47.9494 41.936 47.4694 41.808 46.936 41.808C46.4027 41.808 45.9227 41.936 45.496 42.192C45.0694 42.448 44.728 42.832 44.472 43.344C44.216 43.8347 44.088 44.464 44.088 45.232C44.088 45.9787 44.216 46.6187 44.472 47.152C44.728 47.664 45.0694 48.048 45.496 48.304C45.9227 48.56 46.4027 48.688 46.936 48.688ZM67.8383 54.32C65.4276 54.32 63.5503 53.744 62.2063 52.592C60.8623 51.4187 60.1903 49.6267 60.1903 47.216V32.56H67.4223V47.152C67.4223 47.6853 67.561 48.1013 67.8383 48.4C68.137 48.6987 68.4996 48.848 68.9263 48.848C69.545 48.848 70.089 48.688 70.5583 48.368L72.2863 53.392C71.7316 53.712 71.0596 53.9467 70.2703 54.096C69.5023 54.2453 68.6916 54.32 67.8383 54.32ZM57.7903 42.736V37.456H71.0063V42.736H57.7903Z" fill="#0B0A0A"/>
<path d="M102.205 39V11H115.445C118.539 11 121.259 11.5733 123.605 12.72C125.952 13.8667 127.779 15.48 129.085 17.56C130.419 19.64 131.085 22.12 131.085 25C131.085 27.8533 130.419 30.3333 129.085 32.44C127.779 34.52 125.952 36.1333 123.605 37.28C121.259 38.4267 118.539 39 115.445 39H102.205ZM110.125 32.68H115.125C116.725 32.68 118.112 32.3867 119.285 31.8C120.485 31.1867 121.419 30.3067 122.085 29.16C122.752 27.9867 123.085 26.6 123.085 25C123.085 23.3733 122.752 21.9867 122.085 20.84C121.419 19.6933 120.485 18.8267 119.285 18.24C118.112 17.6267 116.725 17.32 115.125 17.32H110.125V32.68ZM146.252 39.36C143.692 39.36 141.452 38.88 139.532 37.92C137.639 36.9333 136.159 35.6 135.092 33.92C134.052 32.2133 133.532 30.28 133.532 28.12C133.532 25.96 134.039 24.04 135.052 22.36C136.092 20.6533 137.519 19.3333 139.332 18.4C141.145 17.44 143.185 16.96 145.452 16.96C147.585 16.96 149.532 17.4 151.292 18.28C153.052 19.1333 154.452 20.4 155.492 22.08C156.532 23.76 157.052 25.8 157.052 28.2C157.052 28.4667 157.039 28.7733 157.012 29.12C156.985 29.4667 156.959 29.7867 156.932 30.08H139.772V26.08H152.892L150.012 27.2C150.039 26.2133 149.852 25.36 149.452 24.64C149.079 23.92 148.545 23.36 147.852 22.96C147.185 22.56 146.399 22.36 145.492 22.36C144.585 22.36 143.785 22.56 143.092 22.96C142.425 23.36 141.905 23.9333 141.532 24.68C141.159 25.4 140.972 26.2533 140.972 27.24V28.4C140.972 29.4667 141.185 30.3867 141.612 31.16C142.065 31.9333 142.705 32.5333 143.532 32.96C144.359 33.36 145.345 33.56 146.492 33.56C147.559 33.56 148.465 33.4133 149.212 33.12C149.985 32.8 150.745 32.32 151.492 31.68L155.492 35.84C154.452 36.9867 153.172 37.8667 151.652 38.48C150.132 39.0667 148.332 39.36 146.252 39.36ZM173.21 39V34.96L172.69 33.96V26.52C172.69 25.32 172.317 24.4 171.57 23.76C170.85 23.0933 169.69 22.76 168.09 22.76C167.05 22.76 165.997 22.9333 164.93 23.28C163.864 23.6 162.957 24.0533 162.21 24.64L159.65 19.48C160.877 18.68 162.344 18.0667 164.05 17.64C165.784 17.1867 167.504 16.96 169.21 16.96C172.73 16.96 175.45 17.7733 177.37 19.4C179.317 21 180.29 23.52 180.29 26.96V39H173.21ZM166.81 39.36C165.077 39.36 163.61 39.0667 162.41 38.48C161.21 37.8933 160.29 37.0933 159.65 36.08C159.037 35.0667 158.73 33.9333 158.73 32.68C158.73 31.3467 159.064 30.2 159.73 29.24C160.424 28.2533 161.477 27.5067 162.89 27C164.304 26.4667 166.13 26.2 168.37 26.2H173.49V30.16H169.41C168.184 30.16 167.317 30.36 166.81 30.76C166.33 31.16 166.09 31.6933 166.09 32.36C166.09 33.0267 166.344 33.56 166.85 33.96C167.357 34.36 168.05 34.56 168.93 34.56C169.757 34.56 170.504 34.36 171.17 33.96C171.864 33.5333 172.37 32.8933 172.69 32.04L173.73 34.84C173.33 36.3333 172.544 37.4667 171.37 38.24C170.224 38.9867 168.704 39.36 166.81 39.36ZM194.801 39.36C192.828 39.36 191.028 38.9067 189.401 38C187.801 37.0667 186.521 35.7733 185.561 34.12C184.601 32.44 184.121 30.44 184.121 28.12C184.121 25.8267 184.601 23.8533 185.561 22.2C186.521 20.52 187.801 19.2267 189.401 18.32C191.028 17.4133 192.828 16.96 194.801 16.96C196.668 16.96 198.241 17.36 199.521 18.16C200.828 18.96 201.814 20.1867 202.481 21.84C203.148 23.4933 203.481 25.5867 203.481 28.12C203.481 30.7067 203.161 32.8267 202.521 34.48C201.881 36.1333 200.921 37.36 199.641 38.16C198.361 38.96 196.748 39.36 194.801 39.36ZM196.401 33.32C197.254 33.32 198.014 33.12 198.681 32.72C199.374 32.32 199.921 31.7333 200.321 30.96C200.721 30.16 200.921 29.2133 200.921 28.12C200.921 27.0267 200.721 26.1067 200.321 25.36C199.921 24.5867 199.374 24 198.681 23.6C198.014 23.2 197.254 23 196.401 23C195.521 23 194.734 23.2 194.041 23.6C193.374 24 192.841 24.5867 192.441 25.36C192.041 26.1067 191.841 27.0267 191.841 28.12C191.841 29.2133 192.041 30.16 192.441 30.96C192.841 31.7333 193.374 32.32 194.041 32.72C194.734 33.12 195.521 33.32 196.401 33.32ZM201.161 39V35.28L201.201 28.12L200.801 20.96V9.32H208.401V39H201.161ZM238.571 39.36C236.625 39.36 234.998 38.96 233.691 38.16C232.411 37.36 231.451 36.1333 230.811 34.48C230.171 32.8267 229.851 30.7067 229.851 28.12C229.851 25.5867 230.185 23.4933 230.851 21.84C231.545 20.1867 232.545 18.96 233.851 18.16C235.158 17.36 236.731 16.96 238.571 16.96C240.545 16.96 242.331 17.4133 243.931 18.32C245.558 19.2267 246.838 20.52 247.771 22.2C248.731 23.8533 249.211 25.8267 249.211 28.12C249.211 30.44 248.731 32.44 247.771 34.12C246.838 35.7733 245.558 37.0667 243.931 38C242.331 38.9067 240.545 39.36 238.571 39.36ZM224.931 39V9.32H232.531V20.96L232.131 28.12L232.171 35.28V39H224.931ZM236.971 33.32C237.825 33.32 238.585 33.12 239.251 32.72C239.945 32.32 240.491 31.7333 240.891 30.96C241.318 30.16 241.531 29.2133 241.531 28.12C241.531 27.0267 241.318 26.1067 240.891 25.36C240.491 24.5867 239.945 24 239.251 23.6C238.585 23.2 237.825 23 236.971 23C236.118 23 235.345 23.2 234.651 23.6C233.985 24 233.438 24.5867 233.011 25.36C232.611 26.1067 232.411 27.0267 232.411 28.12C232.411 29.2133 232.611 30.16 233.011 30.96C233.438 31.7333 233.985 32.32 234.651 32.72C235.345 33.12 236.118 33.32 236.971 33.32ZM255.878 47.12C254.731 47.12 253.571 46.9333 252.398 46.56C251.251 46.2133 250.318 45.7467 249.598 45.16L252.238 39.84C252.691 40.24 253.211 40.5467 253.798 40.76C254.411 41 255.011 41.12 255.598 41.12C256.424 41.12 257.078 40.9333 257.558 40.56C258.038 40.1867 258.451 39.6 258.798 38.8L259.798 36.28L260.398 35.52L267.758 17.32H274.998L265.638 39.88C264.891 41.7467 264.024 43.2 263.038 44.24C262.078 45.3067 260.998 46.0533 259.798 46.48C258.624 46.9067 257.318 47.12 255.878 47.12ZM258.838 39.92L249.278 17.32H257.078L264.118 34.84L258.838 39.92ZM108.165 88V66.28H99.5653V60H124.645V66.28H116.085V88H108.165ZM135.928 88.36C133.555 88.36 131.448 87.88 129.608 86.92C127.768 85.96 126.315 84.64 125.248 82.96C124.208 81.2533 123.688 79.3067 123.688 77.12C123.688 74.9333 124.208 73 125.248 71.32C126.315 69.64 127.768 68.3333 129.608 67.4C131.448 66.44 133.555 65.96 135.928 65.96C138.302 65.96 140.408 66.44 142.248 67.4C144.115 68.3333 145.568 69.64 146.608 71.32C147.648 73 148.168 74.9333 148.168 77.12C148.168 79.3067 147.648 81.2533 146.608 82.96C145.568 84.64 144.115 85.96 142.248 86.92C140.408 87.88 138.302 88.36 135.928 88.36ZM135.928 82.32C136.808 82.32 137.582 82.12 138.248 81.72C138.942 81.32 139.488 80.7333 139.888 79.96C140.288 79.16 140.488 78.2133 140.488 77.12C140.488 76.0267 140.288 75.1067 139.888 74.36C139.488 73.5867 138.942 73 138.248 72.6C137.582 72.2 136.808 72 135.928 72C135.075 72 134.302 72.2 133.608 72.6C132.942 73 132.395 73.5867 131.968 74.36C131.568 75.1067 131.368 76.0267 131.368 77.12C131.368 78.2133 131.568 79.16 131.968 79.96C132.395 80.7333 132.942 81.32 133.608 81.72C134.302 82.12 135.075 82.32 135.928 82.32ZM179.929 65.96C181.609 65.96 183.102 66.3067 184.409 67C185.742 67.6667 186.782 68.7067 187.529 70.12C188.302 71.5333 188.689 73.36 188.689 75.6V88H181.089V76.84C181.089 75.2933 180.796 74.1733 180.209 73.48C179.622 72.76 178.822 72.4 177.809 72.4C177.089 72.4 176.436 72.5733 175.849 72.92C175.262 73.2667 174.809 73.8 174.489 74.52C174.169 75.2133 174.009 76.12 174.009 77.24V88H166.409V76.84C166.409 75.2933 166.116 74.1733 165.529 73.48C164.969 72.76 164.169 72.4 163.129 72.4C162.382 72.4 161.716 72.5733 161.129 72.92C160.569 73.2667 160.116 73.8 159.769 74.52C159.449 75.2133 159.289 76.12 159.289 77.24V88H151.689V66.32H158.929V72.36L157.489 70.64C158.289 69.0933 159.382 67.9333 160.769 67.16C162.156 66.36 163.702 65.96 165.409 65.96C167.356 65.96 169.062 66.4667 170.529 67.48C172.022 68.4667 173.022 70.0133 173.529 72.12L171.049 71.6C171.822 69.84 172.982 68.4667 174.529 67.48C176.102 66.4667 177.902 65.96 179.929 65.96ZM204.639 88.36C202.266 88.36 200.159 87.88 198.319 86.92C196.479 85.96 195.026 84.64 193.959 82.96C192.919 81.2533 192.399 79.3067 192.399 77.12C192.399 74.9333 192.919 73 193.959 71.32C195.026 69.64 196.479 68.3333 198.319 67.4C200.159 66.44 202.266 65.96 204.639 65.96C207.013 65.96 209.119 66.44 210.959 67.4C212.826 68.3333 214.279 69.64 215.319 71.32C216.359 73 216.879 74.9333 216.879 77.12C216.879 79.3067 216.359 81.2533 215.319 82.96C214.279 84.64 212.826 85.96 210.959 86.92C209.119 87.88 207.013 88.36 204.639 88.36ZM204.639 82.32C205.519 82.32 206.293 82.12 206.959 81.72C207.653 81.32 208.199 80.7333 208.599 79.96C208.999 79.16 209.199 78.2133 209.199 77.12C209.199 76.0267 208.999 75.1067 208.599 74.36C208.199 73.5867 207.653 73 206.959 72.6C206.293 72.2 205.519 72 204.639 72C203.786 72 203.013 72.2 202.319 72.6C201.653 73 201.106 73.5867 200.679 74.36C200.279 75.1067 200.079 76.0267 200.079 77.12C200.079 78.2133 200.279 79.16 200.679 79.96C201.106 80.7333 201.653 81.32 202.319 81.72C203.013 82.12 203.786 82.32 204.639 82.32ZM220.4 88V66.32H227.64V72.64L226.56 70.84C227.2 69.2133 228.24 68 229.68 67.2C231.12 66.3733 232.867 65.96 234.92 65.96V72.8C234.573 72.7467 234.267 72.72 234 72.72C233.76 72.6933 233.493 72.68 233.2 72.68C231.653 72.68 230.4 73.1067 229.44 73.96C228.48 74.7867 228 76.1467 228 78.04V88H220.4ZM238.056 88V66.32H245.296V72.64L244.216 70.84C244.856 69.2133 245.896 68 247.336 67.2C248.776 66.3733 250.523 65.96 252.576 65.96V72.8C252.23 72.7467 251.923 72.72 251.656 72.72C251.416 72.6933 251.15 72.68 250.856 72.68C249.31 72.68 248.056 73.1067 247.096 73.96C246.136 74.7867 245.656 76.1467 245.656 78.04V88H238.056ZM266.397 88.36C264.024 88.36 261.917 87.88 260.077 86.92C258.237 85.96 256.784 84.64 255.717 82.96C254.677 81.2533 254.157 79.3067 254.157 77.12C254.157 74.9333 254.677 73 255.717 71.32C256.784 69.64 258.237 68.3333 260.077 67.4C261.917 66.44 264.024 65.96 266.397 65.96C268.77 65.96 270.877 66.44 272.717 67.4C274.584 68.3333 276.037 69.64 277.077 71.32C278.117 73 278.637 74.9333 278.637 77.12C278.637 79.3067 278.117 81.2533 277.077 82.96C276.037 84.64 274.584 85.96 272.717 86.92C270.877 87.88 268.77 88.36 266.397 88.36ZM266.397 82.32C267.277 82.32 268.05 82.12 268.717 81.72C269.41 81.32 269.957 80.7333 270.357 79.96C270.757 79.16 270.957 78.2133 270.957 77.12C270.957 76.0267 270.757 75.1067 270.357 74.36C269.957 73.5867 269.41 73 268.717 72.6C268.05 72.2 267.277 72 266.397 72C265.544 72 264.77 72.2 264.077 72.6C263.41 73 262.864 73.5867 262.437 74.36C262.037 75.1067 261.837 76.0267 261.837 77.12C261.837 78.2133 262.037 79.16 262.437 79.96C262.864 80.7333 263.41 81.32 264.077 81.72C264.77 82.12 265.544 82.32 266.397 82.32ZM286.732 88L279.012 66.32H286.212L292.332 84.44H288.892L295.252 66.32H301.732L307.852 84.44H304.492L310.812 66.32H317.492L309.772 88H302.412L297.212 73H299.452L294.092 88H286.732Z" fill="#DF3434"/>
</svg>
